<svg xmlns="http://www.w3.org/2000/svg" width="93" height="93" viewBox="0 0 93 93" fill="none"><path d="M89.02 7.55005C88.39 7.55005 87.88 8.01005 87.78 8.63005C87.04 13.1 85.01 17.15 82.09 20.38C81.82 20.68 81.55 20.97 81.26 21.26C80.81 21.71 80.34 22.14 79.85 22.55C79.37 22.96 78.87 23.35 78.35 23.72C78.92 22.95 79.42 22.14 79.85 21.28C80.01 20.98 80.15 20.68 80.28 20.38C81.17 18.32 81.67 16.05 81.67 13.66C81.67 11.81 81.37 10.03 80.82 8.36005C80.66 7.87005 80.18 7.55005 79.66 7.55005H79.61C78.76 7.55005 78.2 8.38005 78.46 9.19005C78.92 10.6 79.17 12.1 79.17 13.66C79.17 16.09 78.57 18.37 77.51 20.38C76.84 21.67 75.97 22.85 74.94 23.87C73.17 25.64 70.94 26.9601 68.44 27.6101C67.98 27.74 67.5 27.84 67.02 27.92C66.58 27.99 66.15 28.04 65.7 28.07C65.66 28.07 65.61 28.07 65.56 28.08H65.48C65.24 28.09 64.99 28.1 64.74 28.1C64.49 28.1 64.24 28.09 64 28.08C60.3 27.89 56.98 26.32 54.53 23.87C54.42 23.76 54.3 23.64 54.19 23.52C53.32 22.58 52.56 21.53 51.96 20.38C50.9 18.37 50.3 16.09 50.3 13.66C50.3 12.1 50.55 10.6 51.01 9.19005C51.28 8.38005 50.71 7.55005 49.86 7.55005H49.79C49.27 7.55005 48.8 7.87005 48.64 8.36005C48.09 10.03 47.79 11.81 47.79 13.66C47.79 14.51 47.85 15.34 47.98 16.16C48.19 17.63 48.6 19.05 49.18 20.38C49.53 21.17 49.95 21.93 50.41 22.66L50.92 23.59C49.95 22.88 49.04 22.1 48.2 21.26C47.91 20.97 47.64 20.68 47.37 20.38C46.33 19.23 45.41 17.98 44.62 16.64C43.85 15.35 43.2 13.98 42.7 12.54C42.25 11.27 41.91 9.96005 41.69 8.60005C41.59 8.00005 41.09 7.55005 40.49 7.55005H40.42C39.66 7.55005 39.09 8.24005 39.22 8.99005C39.34 9.73005 39.5 10.47 39.69 11.19C39.96 12.26 40.31 13.31 40.71 14.32C40.92 14.83 41.14 15.33 41.37 15.83C42.14 17.45 43.08 18.97 44.15 20.38C46.47 23.42 49.44 25.93 52.85 27.7001C53.48 29.4501 53.89 31.29 54.08 33.21C54.15 33.96 54.19 34.73 54.19 35.5C54.19 39.2901 53.29 42.8801 51.68 46.0401C50.56 48.2601 49.09 50.28 47.35 52.0201C45.61 53.7601 43.59 55.23 41.37 56.35C39.02 57.55 36.45 58.35 33.72 58.68C32.02 58.21 30.29 57.8101 28.54 57.48C25.93 56.98 23.27 56.6501 20.55 56.4901C20.49 56.4901 20.42 56.48 20.35 56.48C19.05 56.41 18.52 58.14 19.65 58.8C19.66 58.81 19.67 58.8101 19.68 58.82C19.85 58.92 20.03 58.9701 20.22 58.98C23.04 59.14 25.83 59.4901 28.53 60.0201C29.45 60.2001 30.37 60.4001 31.28 60.6301C30.69 60.8601 30.1 61.09 29.52 61.34C29.19 61.48 28.86 61.62 28.53 61.7701C23.94 63.7901 19.64 66.3501 15.7 69.3601C14.71 70.1001 13.75 70.88 12.81 71.69C9.09999 74.86 5.75999 78.45 2.86999 82.39C2.82999 82.44 2.78999 82.5 2.74999 82.55C2.14999 83.36 2.73999 84.52 3.75999 84.52C4.14999 84.52 4.51999 84.33 4.74999 84.01C6.61999 81.4501 8.68999 79.03 10.93 76.79C12.44 75.28 14.04 73.84 15.7 72.5C16.04 72.22 16.38 71.9501 16.72 71.69C20.35 68.87 24.31 66.4501 28.53 64.5C30.76 63.46 33.06 62.56 35.43 61.8C37.46 62.4501 39.43 63.2 41.36 64.06C45.25 65.77 48.93 67.88 52.34 70.34C52.95 70.78 53.56 71.23 54.15 71.69C54.16 71.7001 54.17 71.7 54.18 71.71C55.3 72.58 56.4 73.4901 57.45 74.44C60.01 76.72 62.37 79.22 64.51 81.91C65.2 82.76 65.86 83.63 66.49 84.52C66.67 84.77 66.84 85.01 67.01 85.26V52.4501C67.01 50.1501 67.55 47.9701 68.52 46.0401C69.21 44.6301 70.14 43.3501 71.24 42.2401C73.03 40.4501 75.3 39.1201 77.83 38.4701C78.22 38.3701 79 38.2801 79.63 38.1501C81.97 37.6901 81.63 33.6 80.29 33.28C80.18 33.25 80.18 33.2401 79.84 33.2001C76.36 32.83 73.15 31.96 70.65 29.89C74.01 29.12 77.13 27.67 79.84 25.7001C81.92 24.2101 83.76 22.41 85.31 20.37C87.61 17.36 89.52 13.67 90.26 9.01005C90.39 8.25005 89.8 7.55005 89.02 7.55005ZM71.01 33.21C72.55 34.16 74.24 34.86 76.05 35.28C76.94 35.49 77.87 35.6201 78.81 35.68C78.8 35.7001 78.79 35.71 78.79 35.73C76.72 36.05 74.77 36.76 73.02 37.78C70.56 39.19 68.49 41.2001 67.02 43.6101C66.54 44.3801 66.13 45.1901 65.78 46.0401C64.97 48.0201 64.52 50.18 64.52 52.4501V71.0401C62.7 71.3501 61 72.01 59.49 72.94C59.02 72.5201 58.55 72.1001 58.07 71.69C56.82 70.61 55.53 69.5801 54.19 68.6101C54.08 68.53 53.97 68.4501 53.85 68.3701C50 65.5801 45.81 63.2201 41.37 61.34C40.78 61.1 40.19 60.8601 39.6 60.6301C39.23 60.4901 38.87 60.35 38.5 60.21C39.48 59.9 40.44 59.5401 41.37 59.1101C41.55 59.0401 41.73 58.96 41.9 58.87C43.04 58.33 44.14 57.71 45.18 57.01C49.04 54.42 52.17 50.82 54.19 46.59C54.28 46.41 54.36 46.23 54.44 46.0401C55.89 42.82 56.69 39.25 56.69 35.5C56.69 34.73 56.66 33.96 56.59 33.21C56.46 31.78 56.22 30.3901 55.87 29.0401C58.38 29.9501 61.07 30.49 63.87 30.58C64.16 30.59 64.45 30.6 64.74 30.6C65.04 30.6 65.33 30.59 65.63 30.58C66.07 30.56 66.78 30.53 67.22 30.48C67.35 30.47 67.48 30.45 67.61 30.44C68.6 31.51 69.75 32.44 71.01 33.21Z" fill="#43B5A0"></path></svg>